# xmcd CD database file generated by LOLA_Freedb v0.9beta0
# 
# Track frame offsets:
#      150
#      717
#      28868
#      37280
#      56641
#      83466
#      102633
#      135003
#      156006
# 
# Disc length: 2274 seconds
# 
# Revision: 0 
# Processed by: cddbd v1.5.2PL0 Copyright (c) Steve Scherf et al.
# Submitted via: LOLA_Freedb v0.9beta0
# 
DISCID=6908e009
DTITLE=Die Kinder - Uni - Warum gibt es Blitz und Donner?
DYEAR=2005
DGENRE=
TTITLE0=Die Kinder - Uni - Einleitung
TTITLE1=Die Kinder - Uni - Warum gibt es Blitz und Donner?
TTITLE2=Die Kinder - Uni - Wie man ohne Schulabschluss berühmt wird
TTITLE3=Die Kinder - Uni - Was hat Bernstein mit Fernsehen zu tun?
TTITLE4=Die Kinder - Uni - Warum eine Bande von kleinen Abenteurern so viel Kraft hat
TTITLE5=Die Kinder - Uni - Was hat Eisessen mit Strom zu tun?
TTITLE6=Die Kinder - Uni - `Warum Benjamin Franklin gleich doppeltes Glück hatte
TTITLE7=Die Kinder - Uni - Was hat der Blitz gegen Golfspieler?
TTITLE8=Die Kinder - Uni - Sind Gewitter nützlich?
EXTD=
EXTT0=
EXTT1=
EXTT2=
EXTT3=
EXTT4=
EXTT5=
EXTT6=
EXTT7=
EXTT8=
PLAYORDER=
